<svg
  viewBox="0 0 150 148.5"
  xmlns="http://www.w3.org/2000/svg">
  <path
    d="M137.11,66.64c-6.8-7.2-16-16.73-25.85-26.85S92.08,20.26,85.05,13.29C71.7.05,71.37,0,69.2,0h-.09a4.54,4.54,0,0,0-4,2.34C63.56,4.7,48.59,23.24,35.37,39.62,27,50,18.31,60.74,11.83,68.85c-3.51,4.4-6.09,7.65-7.87,10-1,1.29-1.74,2.27-2.25,3-.22.3-.47.65-.71,1a4.84,4.84,0,0,0-1,3.12c0,.64.1,2.57,3.5,6.53C6.13,95.52,8.44,97,10.77,97a5.26,5.26,0,0,0,1.58-.24A4.16,4.16,0,0,0,13.7,96a4.47,4.47,0,0,0,.41-.32h0a4.54,4.54,0,0,0,1.48-3.36v0C21,83.21,61.65,33.86,68.07,27.85a4.94,4.94,0,0,0,.49-.3q1.29-.93,2.28-1.77a4.55,4.55,0,0,0,1.82,1.1c6.9,4.18,57.59,52.91,63.54,61a4.56,4.56,0,0,0,1.34,2.38,5.41,5.41,0,0,0,3.7,1.47c3.7,0,6.08-3.64,7.5-5.81l0-.06a4.57,4.57,0,0,0,1.21-3C150,80.65,150,80.32,137.11,66.64Z"
    id="roof" />

  <path
    d="M117.32,83.83l0,0c-4.62-3.87-26.29-24.74-32-32.05q0-.33-.12-.66a10.21,10.21,0,0,0-10.67-8,10.13,10.13,0,0,0-4.72-.19c-4.23.83-6,3.09-11.86,10.58-3.21,4.11-7.45,9.67-11.55,15-6.07,8-14.26,18.7-16.68,21.42a9.94,9.94,0,0,0-2,2.13c-3.48,4.93-1.52,9.74.74,15.32,1.36,3.34,3.25,7.68,5.34,12.23,2.47,5.38,8.6,18.42,12.27,23.45a15.92,15.92,0,0,0,2,2.29,10.8,10.8,0,0,0,7.53,3.16,10.68,10.68,0,0,0,3.17-.48l.45-.15c5.58-.56,22-1.54,28.58-1.94l5.46-.33,1.64-.1c.45,0,.89-.09,1.3-.16a10.21,10.21,0,0,0,1.27-.28,10,10,0,0,0,4.59-2.68c3.31-3.07,5.53-8,7.59-12.49,2.58-5.67,5.53-13.14,7.9-20C121.56,98.3,124.73,89.13,117.32,83.83Zm-32.1,6c-.32,8.34-5.66,14-12.16,14.18-.55,0-1.22-.17-1-.17h0c-4.74-1.15-13.2-7.18-11.16-14,2.46-7.33,3.13-14.2,11.42-14.2h.73c.28,0,.55,0,.83,0C80.93,75.64,86.15,82.54,85.22,89.86Z"
    id="house" />
</svg>
